<svg width="150" height="150" viewBox="0 0 150 150" fill="none" xmlns="http://www.w3.org/2000/svg">
<path d="M0 15C0 6.71573 6.71573 0 15 0H135C143.284 0 150 6.71573 150 15V150H0V15Z" fill="#282828"/>
<path fill-rule="evenodd" clip-rule="evenodd" d="M66 57.1389V85.1512C64.3481 83.1327 61.825 81.8364 59 81.8364C54.0375 81.8364 50 85.8241 50 90.7253C50 95.6265 54.0375 99.6142 59 99.6142C63.9625 99.6142 68 95.6265 68 90.7253V58.7377L98 52.4383V79.1358C96.3488 77.1173 93.8262 75.821 91 75.821C86.0375 75.821 82 79.8086 82 84.7099C82 89.6111 86.0375 93.5988 91 93.5988C95.9625 93.5988 100 89.6111 100 84.7099V50L66 57.1389ZM59 97.6389C55.14 97.6389 52 94.537 52 90.7253C52 86.9123 55.14 83.8117 59 83.8117C62.86 83.8117 66 86.9123 66 90.7253C66 94.5364 62.8587 97.6389 59 97.6389ZM91 91.6235C87.14 91.6235 84 88.5222 84 84.7099C84 80.8988 87.14 77.7963 91 77.7963C94.86 77.7963 98 80.8988 98 84.7099C98 88.5235 94.8587 91.6235 91 91.6235Z" fill="#7F7F7F"/>
</svg>
