<svg width="20" height="20" viewBox="0 0 20 20" fill="none" xmlns="http://www.w3.org/2000/svg">
<path d="M19.2176 1.82921H7.30206C6.97447 0.767253 6.05418 0 4.97216 0C3.89014 0 2.96985 0.767253 2.64226 1.82921H0.782336C0.350278 1.82921 0 2.21153 0 2.68311C0 3.15468 0.350278 3.537 0.782336 3.537H2.64231C2.9699 4.59896 3.89019 5.36621 4.97221 5.36621C6.05424 5.36621 6.97452 4.59896 7.30211 3.537H19.2177C19.6497 3.537 20 3.15468 20 2.68311C20 2.21153 19.6497 1.82921 19.2176 1.82921ZM4.97216 3.65843C4.47945 3.65843 4.07858 3.22089 4.07858 2.68311C4.07858 2.14532 4.47945 1.70779 4.97216 1.70779C5.46488 1.70779 5.86575 2.14532 5.86575 2.68311C5.86575 3.22089 5.46488 3.65843 4.97216 3.65843Z" fill="black"/>
<path d="M19.2176 9.14611H17.3576C17.03 8.08415 16.1097 7.31689 15.0277 7.31689C13.9458 7.31689 13.0255 8.08415 12.6979 9.14611H0.782336C0.350278 9.14611 0 9.52842 0 10C0 10.4716 0.350278 10.8539 0.782336 10.8539H12.6979C13.0255 11.9159 13.9458 12.6831 15.0278 12.6831C16.1098 12.6831 17.0301 11.9159 17.3577 10.8539H19.2177C19.6497 10.8539 20 10.4716 20 10C20 9.52842 19.6497 9.14611 19.2176 9.14611ZM15.0278 10.9753C14.5351 10.9753 14.1342 10.5378 14.1342 10C14.1342 9.46222 14.5351 9.02468 15.0278 9.02468C15.5205 9.02468 15.9214 9.46222 15.9214 10C15.9214 10.5378 15.5205 10.9753 15.0278 10.9753Z" fill="black"/>
<path d="M19.2176 16.463H10.654C10.3264 15.401 9.40608 14.6338 8.32405 14.6338C7.24203 14.6338 6.32174 15.401 5.99415 16.463H0.782336C0.350278 16.463 0 16.8453 0 17.3169C0 17.7885 0.350278 18.1708 0.782336 18.1708H5.99415C6.32174 19.2327 7.24203 20 8.32405 20C9.40608 20 10.3264 19.2327 10.654 18.1708H19.2177C19.6497 18.1708 20 17.7885 20 17.3169C20 16.8453 19.6497 16.463 19.2176 16.463ZM8.32405 18.2923C7.83134 18.2923 7.43047 17.8547 7.43047 17.317C7.43047 16.7792 7.83134 16.3416 8.32405 16.3416C8.81677 16.3416 9.21764 16.7791 9.21764 17.3169C9.21764 17.8547 8.81677 18.2923 8.32405 18.2923Z" fill="black"/>
</svg>
