<svg width="32" height="32" viewBox="0 0 40 40" fill="none" xmlns="http://www.w3.org/2000/svg">
  <g clip-path="url(#clip0)">
    <path d="M38.9851 13.553C37.8111 11.145 35.7944 9.79672 33.8434 8.49131C32.3895 7.51726 31.0184 6.59748 30.0472 5.28064L29.8672 5.03784C29.2959 4.26946 28.6447 3.39823 28.5447 2.66698C28.5361 2.60699 28.5018 2.55843 28.4847 2.49845C28.459 2.39847 28.4304 2.30421 28.3847 2.2128C28.3504 2.13853 28.3019 2.07283 28.2505 2.00428C28.1905 1.92715 28.1334 1.85288 28.0591 1.79004C27.9877 1.7272 27.9106 1.68435 27.8306 1.63579C27.7563 1.59295 27.6877 1.55296 27.6049 1.52439C27.5049 1.48726 27.4021 1.47297 27.2936 1.46155C27.2393 1.45869 27.1936 1.43298 27.1364 1.43298C27.1022 1.43298 27.0736 1.45012 27.0422 1.45298C27.0079 1.45584 26.9765 1.44155 26.9422 1.44727C26.8794 1.45584 26.8308 1.49011 26.7708 1.50725C26.6737 1.53296 26.5823 1.55867 26.4966 1.60437C26.4166 1.64436 26.3481 1.69578 26.2795 1.75291C26.2052 1.81004 26.1338 1.86717 26.0738 1.93858C26.0139 2.00713 25.971 2.0814 25.9253 2.15853C25.8796 2.23851 25.8368 2.31563 25.8053 2.40418C25.7739 2.49273 25.7625 2.58414 25.7511 2.68126C25.7368 2.73839 25.7082 2.79552 25.7082 2.86122V28.3123C24.5114 27.5868 23.0374 27.1412 21.4235 27.1412C17.4844 27.1412 14.2823 29.7034 14.2823 32.8541C14.2823 36.0048 17.4844 38.5671 21.4235 38.5671C25.3626 38.5671 28.5647 36.0048 28.5647 32.8541V16.2066C30.7099 17.0264 34.2205 19.1145 35.186 23.9905C35.006 24.2562 34.8346 24.5447 34.6347 24.7703C34.1119 25.3616 34.1719 26.2643 34.7632 26.7841C35.0346 27.0241 35.3716 27.1412 35.7059 27.1412C36.1029 27.1412 36.4942 26.9755 36.777 26.6556C37.1569 26.2243 37.4969 25.713 37.8225 25.1874C37.8596 25.1417 37.8882 25.0988 37.9196 25.0503C39.0736 23.1193 39.8392 20.677 39.9848 18.2633C40.0791 16.7122 39.7335 15.084 38.9851 13.553ZM21.4235 35.7106C19.1012 35.7106 17.1388 34.4023 17.1388 32.8541C17.1388 31.3059 19.1012 29.9977 21.4235 29.9977C23.7458 29.9977 25.7082 31.3059 25.7082 32.8541C25.7082 34.4023 23.7458 35.7106 21.4235 35.7106ZM37.1369 18.0833C37.097 18.7517 36.9941 19.4202 36.8484 20.0743C34.8403 16.0438 31.1983 13.9443 28.5647 13.1674V7.92002C29.6844 9.11402 30.9841 10.0081 32.2581 10.8593C33.9691 12.0048 35.5859 13.0874 36.4228 14.8041C36.9484 15.8753 37.1998 17.0436 37.1369 18.0833Z" fill="white"/>
    <path d="M18.567 1.43298H1.42823C0.639849 1.43298 0 2.07283 0 2.86122C0 3.6496 0.639849 4.28945 1.42823 4.28945H18.567C19.3554 4.28945 19.9953 3.6496 19.9953 2.86122C19.9953 2.07283 19.3554 1.43298 18.567 1.43298Z" fill="white"/>
    <path d="M18.567 10.0023H1.42823C0.639849 10.0023 0 10.6422 0 11.4306C0 12.2189 0.639849 12.8588 1.42823 12.8588H18.567C19.3554 12.8588 19.9953 12.2189 19.9953 11.4306C19.9953 10.6422 19.3554 10.0023 18.567 10.0023Z" fill="white"/>
    <path d="M9.99763 18.5718H1.42823C0.639849 18.5718 0 19.2116 0 20C0 20.7884 0.639849 21.4282 1.42823 21.4282H9.99763C10.786 21.4282 11.4259 20.7884 11.4259 20C11.4259 19.2116 10.786 18.5718 9.99763 18.5718Z" fill="white"/>
    <path d="M9.99763 27.1412H1.42823C0.639849 27.1412 0 27.7811 0 28.5695C0 29.3579 0.639849 29.9977 1.42823 29.9977H9.99763C10.786 29.9977 11.4259 29.3579 11.4259 28.5695C11.4259 27.7811 10.786 27.1412 9.99763 27.1412Z" fill="white"/>
  </g>
  <defs>
    <clipPath id="clip0">
      <rect width="40" height="40" fill="white"/>
    </clipPath>
  </defs>
</svg>
