<svg width="55" height="55" viewBox="0 0 55 55" fill="none" xmlns="http://www.w3.org/2000/svg">
  <path d="M27.5014 0C12.3758 0 0 12.3758 0 27.5014C0 42.6242 12.3758 55 27.5014 55C42.6242 55 55 42.6242 55 27.5014C55 12.3758 42.7619 0 27.5014 0ZM40.1496 39.7368C39.6019 40.5598 38.6385 40.8378 37.8099 40.29C31.344 36.2987 23.2321 35.4729 13.6062 37.6723C12.6483 37.9531 11.8225 37.2649 11.5472 36.4364C11.2692 35.4729 11.9574 34.6527 12.7859 34.3747C23.2321 32.0349 32.3102 33.0011 39.4587 37.4025C40.4222 37.8127 40.5598 38.911 40.1496 39.7368ZM43.4528 32.1753C42.7619 33.136 41.526 33.5489 40.5598 32.8607C33.136 28.3299 21.864 26.9481 13.2015 29.7007C12.106 29.9787 10.8618 29.4255 10.5893 28.3299C10.3113 27.2234 10.8646 25.9847 11.9629 25.7094C21.9989 22.6871 34.3774 24.201 42.8995 29.4282C43.7253 29.8383 44.1382 31.2119 43.4528 32.1753ZM43.7253 24.4708C34.9252 19.249 20.2125 18.6985 11.8225 21.3162C10.4489 21.7236 9.06987 20.9006 8.66248 19.6647C8.24959 18.2829 9.06987 16.9093 10.3113 16.4964C20.0748 13.6089 36.1639 14.1567 46.3403 20.2152C47.5762 20.9006 47.9891 22.5522 47.3009 23.7881C46.6128 24.7515 44.964 25.1589 43.7253 24.4708Z" fill="white"/>
</svg>
