<svg width="32" height="32" viewBox="0 0 40 40" fill="none" xmlns="http://www.w3.org/2000/svg">
  <g clip-path="url(#clip0)">
    <path d="M39.5348 9.76855C39.242 9.54714 38.8622 9.47566 38.5088 9.57566L21.9463 14.2631C21.4419 14.406 21.0936 14.8664 21.0936 15.3907V31.2557C20.4035 30.8554 19.6034 30.625 18.7499 30.625C16.1652 30.625 14.0624 32.7278 14.0624 35.3125C14.0624 37.8972 16.1652 40 18.7499 40C21.3345 40 23.4373 37.8972 23.4373 35.3125C23.4373 35.1908 23.4373 20.9644 23.4373 20.9644L37.656 16.9402V26.5682C36.966 26.1679 36.1658 25.9375 35.3123 25.9375C32.7276 25.9375 30.6248 28.0404 30.6248 30.625C30.6248 33.2097 32.7276 35.3125 35.3123 35.3125C37.897 35.3125 39.9998 33.2097 39.9998 30.625C39.9998 30.521 39.9998 10.7032 39.9998 10.7032C39.9999 10.336 39.8277 9.99003 39.5348 9.76855ZM18.7499 37.6563C17.4576 37.6563 16.4062 36.6049 16.4062 35.3125C16.4062 34.0202 17.4576 32.9688 18.7499 32.9688C20.0423 32.9688 21.0937 34.0202 21.0937 35.3125C21.0937 36.6049 20.0423 37.6563 18.7499 37.6563ZM35.3124 32.9688C34.02 32.9688 32.9686 31.9174 32.9686 30.625C32.9686 29.3327 34.02 28.2813 35.3124 28.2813C36.6047 28.2813 37.6561 29.3327 37.6561 30.625C37.6561 31.9174 36.6047 32.9688 35.3124 32.9688ZM37.6561 14.5045L23.4374 18.5287V16.277L37.6561 12.2528V14.5045Z" fill="white"/>
    <path d="M16.3528 8.31913C13.7528 6.4132 11.848 4.52555 10.5298 2.54814L9.17906 0.522286C8.89258 0.0925997 8.3586 -0.0988839 7.86446 0.0507249C7.37024 0.200412 7.0322 0.655957 7.0322 1.17236V19.5373C6.34212 19.1371 5.54197 18.9067 4.68846 18.9067C2.10378 18.9067 0.000976562 21.0095 0.000976562 23.5942C0.000976562 26.1788 2.10378 28.2816 4.68846 28.2816C7.27313 28.2816 9.37594 26.1788 9.37594 23.5942V4.95305C10.7765 6.75765 12.6173 8.48694 14.9671 10.2095C15.8688 10.8704 16.4072 11.9313 16.4072 13.0474C16.4072 14.9859 14.8301 16.563 12.8916 16.563C12.2444 16.563 11.7197 17.0877 11.7197 17.7349C11.7197 18.3821 12.2444 18.9067 12.8916 18.9067C16.1224 18.9067 18.7509 16.2782 18.7509 13.0473C18.7509 11.1874 17.8543 9.41983 16.3528 8.31913ZM4.68846 25.9379C3.39612 25.9379 2.34472 24.8865 2.34472 23.5942C2.34472 22.3018 3.39612 21.2504 4.68846 21.2504C5.9808 21.2504 7.0322 22.3018 7.0322 23.5942C7.0322 24.8865 5.9808 25.9379 4.68846 25.9379Z" fill="white"/>
  </g>
  <defs>
    <clipPath id="clip0">
      <rect width="40" height="40" fill="white"/>
    </clipPath>
  </defs>
</svg>
