<svg width="50" height="48" viewBox="0 0 50 48" fill="none" xmlns="http://www.w3.org/2000/svg">
<path d="M49.8693 18.1045C49.54 17.092 48.6421 16.3752 47.5838 16.2795L33.1503 14.9691L27.4461 1.61441C27.0249 0.63325 26.0667 0 25.0001 0C23.9335 0 22.9748 0.63325 22.5563 1.61441L16.8521 14.9691L2.4163 16.2795C1.35809 16.3771 0.461998 17.0939 0.130877 18.1045C-0.198337 19.1169 0.105699 20.2274 0.906036 20.9293L11.8166 30.4963L8.59965 44.6651C8.36428 45.7069 8.76864 46.7842 9.63307 47.4091C10.0977 47.7467 10.6436 47.9153 11.1914 47.9153C11.6621 47.9153 12.1333 47.7902 12.554 47.5384L25.0001 40.0966L37.4438 47.5384C38.3567 48.0839 39.5046 48.0339 40.3671 47.4091C41.2315 46.7842 41.6359 45.7069 41.4005 44.6651L38.1835 30.4963L49.0941 20.9293C49.8941 20.2274 50.1985 19.1192 49.8693 18.1045Z" fill="white"/>
</svg>
