<svg width="14" height="50" viewBox="0 0 14 50" fill="none" xmlns="http://www.w3.org/2000/svg">
<path d="M13.25 25C13.25 28.4519 10.4519 31.25 7 31.25C3.54808 31.25 0.75 28.4519 0.75 25C0.75 21.5481 3.54808 18.75 7 18.75C10.4519 18.75 13.25 21.5481 13.25 25Z" fill="white"/>
<path d="M13.25 6.25C13.25 9.70192 10.4519 12.5 7 12.5C3.54808 12.5 0.75 9.70192 0.75 6.25C0.75 2.79808 3.54808 0 7 0C10.4519 0 13.25 2.79808 13.25 6.25Z" fill="white"/>
<path d="M13.25 43.75C13.25 47.2019 10.4519 50 7 50C3.54808 50 0.75 47.2019 0.75 43.75C0.75 40.2981 3.54808 37.5 7 37.5C10.4519 37.5 13.25 40.2981 13.25 43.75Z" fill="white"/>
</svg>
