<svg width="18" height="18" viewBox="0 0 18 18" fill="none" xmlns="http://www.w3.org/2000/svg">
<g clip-path="url(#clip0)">
<path d="M17.8615 8.70207L7.68772 0.0934932C7.61729 0.0336244 7.52729 0.00075531 7.43494 0.00075531H0.39156C0.227214 0.00075531 0.0804772 0.103276 0.0241301 0.257447C-0.0322169 0.411619 0.0139564 0.584574 0.139172 0.690616L9.9596 9.00063L0.138781 17.3106C0.0135651 17.4167 -0.0326082 17.5896 0.0237388 17.7438C0.0804772 17.898 0.227214 18.0005 0.39156 18.0005H7.43494C7.52729 18.0005 7.61729 17.9676 7.68772 17.9078L17.8615 9.29919C17.9491 9.22485 18 9.11567 18 9.00063C18 8.88559 17.9491 8.77642 17.8615 8.70207ZM7.29173 17.2179H1.45941L10.8177 9.29919C10.9058 9.22485 10.9566 9.11567 10.9566 9.00063C10.9566 8.88559 10.9058 8.77642 10.8181 8.70207L1.45941 0.783353H7.29134L17.0026 9.00063L7.29173 17.2179Z" fill="black"/>
<line x1="1.31235" y1="0.609566" x2="11.3123" y2="8.60957" stroke="black"/>
<line x1="2.31235" y1="0.609566" x2="12.3123" y2="8.60957" stroke="black"/>
<line x1="3.31235" y1="0.609566" x2="13.3123" y2="8.60957" stroke="black"/>
<line x1="4.31235" y1="0.609566" x2="14.3123" y2="8.60957" stroke="black"/>
<line x1="5.31235" y1="0.609566" x2="15.3123" y2="8.60957" stroke="black"/>
<line x1="6.31235" y1="0.609566" x2="16.3123" y2="8.60957" stroke="black"/>
<line x1="6.67793" y1="17.8664" x2="16.4736" y2="9.61753" stroke="black"/>
<line x1="4.67793" y1="17.8664" x2="14.4736" y2="9.61753" stroke="black"/>
<line x1="3.67793" y1="17.8664" x2="13.4736" y2="9.61753" stroke="black"/>
<line x1="2.67793" y1="17.8664" x2="12.4736" y2="9.61753" stroke="black"/>
<line x1="1.67793" y1="17.8664" x2="11.4736" y2="9.61753" stroke="black"/>
<line x1="0.677934" y1="17.8664" x2="10.4736" y2="9.61753" stroke="black"/>
<line x1="5.67793" y1="17.8664" x2="15.4736" y2="9.61753" stroke="black"/>
<line x1="11" y1="8.5" x2="17" y2="8.5" stroke="black"/>
<line x1="11" y1="8.5" x2="17" y2="8.5" stroke="black"/>
<line x1="11" y1="9.5" x2="17" y2="9.5" stroke="black"/>
<line x1="10.5" y1="10" x2="10.5" y2="9" stroke="black"/>
</g>
<defs>
<clipPath id="clip0">
<rect width="18" height="18" fill="white"/>
</clipPath>
</defs>
</svg>
