<svg width="46" height="42" viewBox="0 0 46 42" fill="none" xmlns="http://www.w3.org/2000/svg">
<path d="M23 4.33875C20.516 2.07525 17.348 0.833252 14.009 0.833252C10.4585 0.833252 7.09696 2.235 4.52971 4.78875C-0.764544 10.1055 -0.762294 18.4215 4.53421 23.7158L21.0312 40.2127C21.4137 40.8855 22.1517 41.3198 23 41.3198C23.7245 41.3198 24.3702 40.953 24.782 40.3995L41.4657 23.7158C46.7622 18.4193 46.7622 10.1055 41.4612 4.77975C38.903 2.235 35.5415 0.833252 31.991 0.833252C28.6542 0.833252 25.484 2.07525 23 4.33875ZM38.2797 7.96125C41.7965 11.496 41.7987 17.0175 38.2842 20.5343L23 35.8185L7.71571 20.5343C4.20121 17.0175 4.20346 11.496 7.71121 7.97025C9.42121 6.26925 11.6577 5.33325 14.009 5.33325C16.3602 5.33325 18.5877 6.26925 20.2842 7.96575L21.4092 9.09075C22.289 9.9705 23.711 9.9705 24.5907 9.09075L25.7157 7.96575C29.1177 4.5705 34.8822 4.5795 38.2797 7.96125Z" fill="white"/>
</svg>
