<svg width="32" height="32" viewBox="0 0 40 40" fill="none" xmlns="http://www.w3.org/2000/svg">
  <path d="M34.1422 5.85781C30.3646 2.08039 25.3422 0 20 0C14.6578 0 9.63539 2.08039 5.85781 5.85781C2.08039 9.63539 0 14.6578 0 20C0 25.3422 2.08039 30.3646 5.85781 34.1422C9.63539 37.9196 14.6578 40 20 40C25.3422 40 30.3646 37.9196 34.1422 34.1422C37.9196 30.3646 40 25.3422 40 20C40 14.6578 37.9196 9.63539 34.1422 5.85781ZM20 37.6562C10.2643 37.6562 2.34375 29.7357 2.34375 20C2.34375 10.2643 10.2643 2.34375 20 2.34375C29.7357 2.34375 37.6562 10.2643 37.6562 20C37.6562 29.7357 29.7357 37.6562 20 37.6562Z" fill="white"/>
  <path d="M30.8817 12.5189C29.5863 11.2234 27.8639 10.51 26.0319 10.51C24.1998 10.51 22.4774 11.2234 21.182 12.5189L20 13.7009L18.818 12.5189C17.5226 11.2234 15.8002 10.51 13.9681 10.51C12.1361 10.51 10.4137 11.2234 9.11828 12.5189C7.82281 13.8144 7.10938 15.5368 7.10938 17.3688C7.10938 19.2008 7.82281 20.9232 9.11828 22.2186L19.1714 32.2717C19.4002 32.5006 19.7002 32.615 20 32.615C20.2998 32.615 20.5998 32.5006 20.8286 32.2717L30.8817 22.2186C32.1772 20.9232 32.8906 19.2009 32.8906 17.3688C32.8906 15.5368 32.1772 13.8144 30.8817 12.5189ZM29.2245 20.5614L20 29.7858L10.7755 20.5613C9.92273 19.7086 9.45312 18.5748 9.45312 17.3688C9.45312 16.1627 9.92273 15.0289 10.7755 14.1762C11.6558 13.2959 12.812 12.8559 13.9681 12.8559C15.1244 12.8559 16.2805 13.2959 17.1608 14.1762L19.1714 16.1868C19.629 16.6445 20.371 16.6445 20.8287 16.1868L22.8393 14.1762C24.5996 12.4157 27.4641 12.4157 29.2245 14.1762C30.0773 15.029 30.5469 16.1628 30.5469 17.3688C30.5469 18.5748 30.0773 19.7086 29.2245 20.5614Z" fill="white"/>
</svg>
