<svg width="42" height="38" viewBox="0 0 42 38" fill="none" xmlns="http://www.w3.org/2000/svg">
<path d="M10.2859 0.1999C11.8001 0.1999 13.1881 1.3799 13.1881 2.96696V16.248C18.1173 13.0035 31.6475 4.09644 36.8428 0.67823C37.2828 0.388333 37.7873 0.227505 38.2985 0.202938C38.8096 0.178366 39.3273 0.288467 39.7938 0.53594C40.7248 1.029 41.3136 1.9986 41.3136 3.04865V34.5508C41.3136 35.6009 40.7248 36.5705 39.7938 37.0635C38.8608 37.5585 37.7229 37.5011 36.8427 36.9213C31.6487 33.5032 18.1177 24.596 13.188 21.3515V34.6325C13.188 36.2196 11.8001 37.3996 10.2858 37.3996H3.59023C2.07597 37.3996 0.688034 36.2196 0.688034 34.6325V2.96603C0.688034 1.37899 2.076 0.198975 3.59023 0.198975H10.2858L10.2859 0.1999ZM10.0631 3.2999H3.81311V34.2999H10.0631V3.2999ZM38.1881 3.51182C32.8251 7.04117 19.835 15.5924 14.9616 18.7999C19.8348 22.0075 32.8256 30.5587 38.1881 34.088V3.5112V3.51182Z" fill="white"/>
</svg>
