<svg width="32" height="32" viewBox="0 0 50 50" fill="none" xmlns="http://www.w3.org/2000/svg">
  <g clip-path="url(#clip0)">
    <path d="M45.6854 42.173L42.1062 36.2105C40.4562 33.4585 39.5833 30.3085 39.5833 27.098V21.8751C39.5833 13.8355 33.0395 7.29175 25 7.29175C16.9604 7.29175 10.4167 13.8355 10.4167 21.8751V27.098C10.4167 30.3085 9.5437 33.4585 7.8937 36.2105L4.3145 42.173C4.12075 42.4938 4.11655 42.896 4.29995 43.221C4.4854 43.548 4.83325 43.7502 5.20825 43.7502H44.7916C45.1666 43.7502 45.5145 43.5481 45.6999 43.221C45.8833 42.8959 45.8792 42.4938 45.6854 42.173ZM7.0479 41.6668L9.67915 37.2813C11.525 34.2063 12.5 30.6855 12.5 27.098V21.8751C12.5 14.9813 18.1062 9.37505 25 9.37505C31.8937 9.37505 37.5 14.9813 37.5 21.8751V27.098C37.5 30.6855 38.475 34.2063 40.3187 37.2813L42.952 41.6668H7.0479Z" fill="white"/>
    <path d="M25 0C22.702 0 20.8333 1.86875 20.8333 4.1667V8.3334C20.8333 8.9083 21.3 9.375 21.875 9.375C22.45 9.375 22.9167 8.9083 22.9167 8.3333V4.1667C22.9167 3.0167 23.85 2.0834 25 2.0834C26.15 2.0834 27.0833 3.0167 27.0833 4.1667V8.3334C27.0833 8.9083 27.55 9.375 28.125 9.375C28.7 9.375 29.1667 8.9083 29.1667 8.3333V4.1667C29.1667 1.86875 27.2979 0 25 0Z" fill="white"/>
    <path d="M29.5083 42.1813C29.2146 41.6855 28.5791 41.523 28.0813 41.8083C27.5833 42.1 27.4167 42.7396 27.7083 43.2354C27.9791 43.6958 28.1271 44.2479 28.1271 44.7916C28.1271 46.5146 26.725 47.9166 25.0021 47.9166C23.2791 47.9166 21.8771 46.5146 21.8771 44.7916C21.8771 44.2479 22.025 43.6958 22.2958 43.2354C22.5854 42.7374 22.4188 42.0999 21.9229 41.8083C21.4208 41.5229 20.7874 41.6854 20.4958 42.1813C20.0354 42.9688 19.7916 43.8708 19.7916 44.7917C19.7917 47.6646 22.1271 50 25 50C27.873 50 30.2083 47.6646 30.2125 44.7917C30.2125 43.8708 29.9688 42.9688 29.5083 42.1813Z" fill="white"/>
    <g clip-path="url(#clip1)">
      <circle cx="40.5" cy="10.5" r="8.5" fill="#FA3E3E"/>
      <path d="M41.5527 16H40.2812V7.57129L37.7314 8.50781V7.35938L41.3545 5.99902H41.5527V16Z" fill="white"/>
    </g>
  </g>
  <defs>
    <clipPath id="clip0">
      <rect width="50" height="50" fill="white"/>
    </clipPath>
    <clipPath id="clip1">
      <rect width="17" height="17" fill="white" transform="translate(32 2)"/>
    </clipPath>
  </defs>
</svg>
