<svg width="42" height="50" viewBox="0 0 42 50" fill="none" xmlns="http://www.w3.org/2000/svg">
<path d="M13.7083 0H3.29175C1.5688 0 0.166748 1.40205 0.166748 3.125V46.875C0.166748 48.5979 1.5688 50 3.29175 50H13.7084C15.4314 50 16.8334 48.5979 16.8334 46.875V3.125C16.8333 1.40205 15.4313 0 13.7083 0Z" fill="white"/>
<path d="M38.7084 0H28.2917C26.5688 0 25.1667 1.40205 25.1667 3.125V46.875C25.1667 48.5979 26.5688 50 28.2917 50H38.7085C40.4314 50 41.8335 48.5979 41.8335 46.875V3.125C41.8334 1.40205 40.4313 0 38.7084 0Z" fill="white"/>
</svg>
