<svg width="32" height="32" viewBox="0 0 40 40" fill="none" xmlns="http://www.w3.org/2000/svg">
  <g clip-path="url(#clip0)">
    <path d="M34.4749 21.1477H34.2102V19.803C34.8383 19.4388 35.2638 18.7681 35.2638 17.9903C35.2638 9.57495 28.417 2.72729 20 2.72729C11.5838 2.72729 4.73617 9.57495 4.73617 17.9911C4.73617 18.769 5.1617 19.4396 5.78894 19.8047V21.1494H5.52511C2.47915 21.1494 0 23.9818 0 27.4626V29.5707C0 33.0533 2.47915 35.8856 5.52596 35.8856H7.98553L8.2034 36.1035C8.40851 36.3086 8.6783 36.4116 8.94723 36.4116C9.21702 36.4116 9.48681 36.3086 9.69191 36.1035C9.93447 35.8609 10.017 35.5307 9.97277 35.215C10.1549 34.9579 10.2638 34.6456 10.2638 34.3069V22.7264C10.2638 21.8541 9.5566 21.1477 8.68511 21.1477H7.89532V19.803C8.5217 19.4388 8.94723 18.7681 8.94723 17.9903C8.94723 11.8958 13.9055 6.93751 20 6.93751C26.0945 6.93751 31.0519 11.8958 31.0519 17.9903C31.0519 18.7681 31.4774 19.4388 32.1038 19.803V21.1477H31.314C30.4434 21.1477 29.7353 21.8541 29.7353 22.7264V34.3052C29.7353 34.643 29.8451 34.9571 30.0264 35.2124C29.983 35.5281 30.0655 35.8575 30.3072 36.1009C30.5132 36.306 30.783 36.409 31.0519 36.409C31.3209 36.409 31.5915 36.306 31.7966 36.1009L32.0145 35.883H34.474C37.5209 35.883 40 33.0507 40 29.5681V27.4609C40.0009 23.9818 37.5217 21.1477 34.4749 21.1477Z" fill="white"/>
  </g>
  <defs>
    <clipPath id="clip0">
      <rect width="40" height="40" fill="white"/>
    </clipPath>
  </defs>
</svg>
