<svg width="45" height="36" viewBox="0 0 45 36" fill="none" xmlns="http://www.w3.org/2000/svg">
<path d="M4.80928 28.2852C6.02046 27.3635 7.1797 26.4023 8.03672 25.6714C8.915 24.9575 9.44386 24.4381 9.44386 24.4381L16.0546 21.9131C13.5047 19.5845 11.9465 16.5496 11.9465 13.22C11.9465 5.93201 19.3599 0 28.4732 0C37.5866 0 45 5.93201 45 13.22C45 20.508 37.5866 26.44 28.4732 26.44C24.3109 26.44 20.5168 25.1936 17.6057 23.1558L14.4491 28.4438C14.4491 28.4438 13.7998 28.8669 12.9074 29.5694C11.9937 30.255 10.792 31.1822 9.63982 32.1511C8.4735 33.1067 7.30719 34.0623 6.43363 34.78C5.57896 35.5127 5.00761 36 5.00761 36L0 31.9943C0 31.9943 0.609127 31.5373 1.52518 30.8536C2.41999 30.1511 3.61464 29.2181 4.80928 28.2852ZM28.4732 22.6629C34.9824 22.6629 40.2781 18.4268 40.2781 13.22C40.2781 8.01322 34.9824 3.77715 28.4732 3.77715C21.9641 3.77715 16.6684 8.01322 16.6684 13.22C16.6684 18.4268 21.9641 22.6629 28.4732 22.6629Z" fill="white"/>
</svg>
