<svg width="43" height="45" viewBox="0 0 43 45" fill="none" xmlns="http://www.w3.org/2000/svg">
<path d="M40.6892 7.49989C40.6892 10.8655 37.9612 13.5939 34.5956 13.5939C31.23 13.5939 28.502 10.8655 28.502 7.49989C28.502 4.13464 31.23 1.40625 34.5956 1.40625C37.9612 1.40625 40.6892 4.13464 40.6892 7.49989Z" fill="white"/>
<path d="M34.5956 15.0001C30.4592 15.0001 27.0957 11.6362 27.0957 7.49989C27.0957 3.36388 30.4592 0 34.5956 0C38.7319 0 42.0955 3.36388 42.0955 7.49989C42.0955 11.6362 38.7319 15.0001 34.5956 15.0001ZM34.5956 2.8125C32.01 2.8125 29.9082 4.91638 29.9082 7.49989C29.9082 10.0837 32.01 12.1876 34.5956 12.1876C37.1812 12.1876 39.283 10.0837 39.283 7.49989C39.283 4.91638 37.1812 2.8125 34.5956 2.8125Z" fill="white"/>
<path d="M40.6892 37.5001C40.6892 40.8654 37.9612 43.5937 34.5956 43.5937C31.23 43.5937 28.502 40.8654 28.502 37.5001C28.502 34.1345 31.23 31.4061 34.5956 31.4061C37.9612 31.4061 40.6892 34.1345 40.6892 37.5001Z" fill="white"/>
<path d="M34.5956 45C30.4592 45 27.0957 41.6361 27.0957 37.5001C27.0957 33.3638 30.4592 29.9999 34.5956 29.9999C38.7319 29.9999 42.0955 33.3638 42.0955 37.5001C42.0955 41.6361 38.7319 45 34.5956 45ZM34.5956 32.8124C32.01 32.8124 29.9082 34.9163 29.9082 37.5001C29.9082 40.0836 32.01 42.1875 34.5956 42.1875C37.1812 42.1875 39.283 40.0836 39.283 37.5001C39.283 34.9163 37.1812 32.8124 34.5956 32.8124Z" fill="white"/>
<path d="M14.4396 22.5C14.4396 25.8656 11.7112 28.5936 8.34559 28.5936C4.98034 28.5936 2.25195 25.8656 2.25195 22.5C2.25195 19.1344 4.98034 16.4064 8.34559 16.4064C11.7112 16.4064 14.4396 19.1344 14.4396 22.5Z" fill="white"/>
<path d="M8.34559 29.9999C4.20958 29.9999 0.845703 26.6364 0.845703 22.5C0.845703 18.3637 4.20958 15.0001 8.34559 15.0001C12.4819 15.0001 15.8458 18.3637 15.8458 22.5C15.8458 26.6364 12.4819 29.9999 8.34559 29.9999ZM8.34559 17.8126C5.76003 17.8126 3.6582 19.9162 3.6582 22.5C3.6582 25.0839 5.76003 27.1874 8.34559 27.1874C10.9315 27.1874 13.0333 25.0839 13.0333 22.5C13.0333 19.9162 10.9315 17.8126 8.34559 17.8126Z" fill="white"/>
<path d="M12.7729 21.6001C12.1202 21.6001 11.4864 21.2606 11.1414 20.6533C10.6295 19.7551 10.9447 18.6095 11.8428 18.0955L29.2407 8.17692C30.1388 7.66125 31.2845 7.97642 31.7984 8.87798C32.3103 9.77611 31.9952 10.9218 31.097 11.4357L13.6988 21.3543C13.4063 21.5212 13.0877 21.6001 12.7729 21.6001Z" fill="white"/>
<path d="M30.1688 37.0689C29.8536 37.0689 29.535 36.9899 29.2425 36.8231L11.8443 26.9045C10.9461 26.3926 10.6313 25.2469 11.1432 24.3467C11.653 23.4469 12.8004 23.13 13.7006 23.6457L31.0988 33.5643C31.997 34.0762 32.3118 35.2218 31.7999 36.122C31.4531 36.7294 30.8194 37.0689 30.1688 37.0689Z" fill="white"/>
</svg>
