<svg width="32" height="32" viewBox="0 0 50 50" fill="none" xmlns="http://www.w3.org/2000/svg">
  <g clip-path="url(#clip0)">
    <path d="M25 0C11.193 0 0 11.193 0 25C0 38.807 11.193 50 25 50C25.7532 50 26.5035 49.9662 27.2502 49.8991C27.9443 49.8368 28.6324 49.7416 29.3152 49.6224L29.5776 49.576C42.2717 47.207 51.0734 35.5603 49.8861 22.7014C48.6987 9.84253 37.9134 0.00406901 25 0V0ZM22.9915 48.245H22.9325C22.2843 48.1877 21.641 48.101 21.0034 47.9899C20.9668 47.9834 20.9302 47.9793 20.8944 47.9724C20.271 47.8609 19.6541 47.7226 19.0434 47.561L18.8957 47.5232C18.3 47.3617 17.7108 47.1741 17.1301 46.9657C17.0699 46.9442 17.0093 46.925 16.9491 46.9027C16.3798 46.6935 15.8207 46.4591 15.2702 46.2056C15.2018 46.1751 15.1335 46.1458 15.0651 46.1133C14.5251 45.8634 13.9958 45.5819 13.4766 45.2856C13.4033 45.2441 13.3293 45.2026 13.256 45.1615C12.745 44.8633 12.2457 44.5435 11.7558 44.2057C11.6817 44.1541 11.6069 44.104 11.5332 44.0523C11.0518 43.7109 10.5827 43.3484 10.1257 42.9692L10 42.8593V35.8333C10.0061 30.7731 14.1064 26.6728 19.1667 26.6667H30.8333C35.8936 26.6728 39.9939 30.7731 40 35.8333V42.8601L39.8893 42.9525C39.4234 43.3415 38.9453 43.7093 38.4542 44.0568C38.3891 44.1024 38.3232 44.1459 38.2585 44.1907C37.7629 44.5349 37.255 44.8588 36.735 45.1632C36.6699 45.201 36.6032 45.2368 36.5385 45.2743C36.0116 45.5741 35.4757 45.8573 34.9292 46.1125C34.8665 46.1418 34.8035 46.169 34.74 46.1959C34.185 46.4518 33.621 46.6874 33.0477 46.8982C32.9907 46.9193 32.9333 46.9377 32.8809 46.9576C32.2974 47.1667 31.7057 47.356 31.1068 47.5183L30.9631 47.5541C30.3516 47.7157 29.7343 47.8548 29.1101 47.9667C29.0743 47.9732 29.0385 47.9777 29.0027 47.9834C28.3643 48.0949 27.7201 48.1816 27.0715 48.2393H27.0125C26.346 48.2967 25.6791 48.3276 25.0041 48.3276C24.329 48.3276 23.6568 48.3024 22.9915 48.245ZM41.6667 41.3151V35.8333C41.6598 29.8531 36.8136 25.0069 30.8333 25H19.1667C13.1864 25.0069 8.34025 29.8531 8.33333 35.8333V41.3143C-0.64209 32.1537 -0.541992 17.4666 8.55713 8.42896C17.6562 -0.608317 32.3438 -0.608317 41.4429 8.42896C50.542 17.4666 50.6421 32.1537 41.6667 41.3143V41.3151Z" fill="white"/>
    <path d="M25 6.66675C20.3976 6.66675 16.6667 10.3976 16.6667 15.0001C16.6667 19.6025 20.3976 23.3334 25 23.3334C29.6025 23.3334 33.3334 19.6025 33.3334 15.0001C33.3285 10.3997 29.6004 6.67163 25 6.66675ZM25 21.6667C21.318 21.6667 18.3334 18.6821 18.3334 15.0001C18.3334 11.318 21.318 8.33341 25 8.33341C28.6821 8.33341 31.6667 11.318 31.6667 15.0001C31.6626 18.6801 28.68 21.6627 25 21.6667Z" fill="white"/>
  </g>
  <defs>
    <clipPath id="clip0">
      <rect width="50" height="50" fill="white"/>
    </clipPath>
  </defs>
</svg>
