<svg width="34" height="30" viewBox="0 0 34 30" fill="none" xmlns="http://www.w3.org/2000/svg">
<path d="M20.0078 10.1036C19.4998 9.53176 18.676 9.53157 18.1682 10.1034C17.6601 10.6752 17.6601 11.6023 18.1682 12.174C19.5523 13.7321 19.5523 16.2675 18.1682 17.8256C17.6601 18.3974 17.6601 19.3246 18.1682 19.8962C18.4221 20.182 18.7551 20.3249 19.088 20.3249C19.4209 20.3249 19.7539 20.182 20.0078 19.896C22.4066 17.1964 22.4066 12.8034 20.0078 10.1036Z" fill="white"/>
<path d="M23.821 5.8119C23.313 5.24027 22.4892 5.24027 21.9813 5.8119C21.4733 6.38392 21.4733 7.31086 21.9813 7.88268C25.4682 11.8071 25.4682 18.1929 21.9813 22.1171C21.4733 22.6891 21.4733 23.6161 21.9813 24.1879C22.2353 24.4737 22.5683 24.6166 22.9012 24.6166C23.234 24.6166 23.5671 24.4737 23.821 24.1879C28.3223 19.1217 28.3223 10.8783 23.821 5.8119Z" fill="white"/>
<path d="M28.0762 1.02235C27.5683 0.450916 26.7446 0.450526 26.2365 1.02235C25.7285 1.59437 25.7285 2.52131 26.2365 3.09313C29.0623 6.27358 30.6186 10.5022 30.6186 14.9999C30.6186 19.4977 29.0623 23.7264 26.2365 26.9066C25.7285 27.4786 25.7285 28.4056 26.2365 28.9774C26.4905 29.2632 26.8235 29.4061 27.1564 29.4061C27.4892 29.4061 27.8223 29.2632 28.0762 28.9774C31.3934 25.2439 33.2203 20.2798 33.2203 14.9997C33.2205 9.71994 31.3934 4.75608 28.0762 1.02235Z" fill="white"/>
<path d="M14.7373 0.133852C14.2752 -0.105302 13.732 -0.0192061 13.3466 0.353874L5.08006 8.34923H1.30093C0.582472 8.34923 0 9.00461 0 9.81344V20.1867C0 20.9955 0.582472 21.6509 1.30093 21.6509H5.08006L13.3466 29.6462C13.5873 29.879 13.8893 30 14.1948 30C14.3786 30 14.5637 29.9561 14.7373 29.8663C15.1994 29.6275 15.4955 29.1078 15.4955 28.5358V1.46433C15.4955 0.892313 15.1993 0.372421 14.7373 0.133852ZM2.60187 11.2777H4.26134V18.7225H2.60187V11.2777ZM12.8937 25.3467L6.86321 19.5141V10.4858L12.8937 4.65318V25.3467Z" fill="white"/>
</svg>
